<svg width="22" height="22" viewBox="0 0 22 22" fill="none" xmlns="http://www.w3.org/2000/svg">
<circle cx="11" cy="11" r="10.5" fill="#41872C" stroke="white"/>
<path fill-rule="evenodd" clip-rule="evenodd" d="M10.6352 5L11 6.4256L11.3648 5H10.6352ZM12.1088 6.8144L12.992 5.5856L12.3104 5.36L12.1088 6.8144ZM9.0224 5.5856L9.9056 6.8144L9.704 5.36L9.0224 5.5856ZM14.7824 15.3776C14.3853 15.808 13.8472 16.0821 13.2656 16.1504L13.5008 15.9344C14.8832 14.5472 15.1568 13.064 14.312 11.5136L13.784 10.5824L13.3232 9.6128C13.1744 9.2912 13.2128 9.0464 13.4432 8.8688C13.4877 8.83465 13.5389 8.81018 13.5935 8.79696C13.648 8.78373 13.7048 8.78204 13.76 8.792C13.9232 8.816 14.0768 8.9264 14.1824 9.08L15.5504 11.4896C16.1168 12.4352 16.2128 13.9472 14.7824 15.3776ZM8.408 15.128L5.9984 12.7184C5.93262 12.6513 5.88797 12.5664 5.87 12.4742C5.85203 12.3819 5.86152 12.2865 5.89729 12.1996C5.93307 12.1127 5.99355 12.0382 6.07125 11.9854C6.14895 11.9326 6.24045 11.9037 6.3344 11.9024C6.39871 11.902 6.46245 11.9146 6.52181 11.9393C6.58118 11.9641 6.63498 12.0005 6.68 12.0464L7.928 13.2944C7.96746 13.3345 8.02124 13.3573 8.0775 13.3577C8.13376 13.3582 8.18789 13.3363 8.228 13.2968C8.2681 13.2573 8.29088 13.2036 8.29133 13.1473C8.29178 13.091 8.26986 13.0369 8.2304 12.9968L6.968 11.7392L6.128 10.8992C6.07775 10.8562 6.03694 10.8032 6.00813 10.7437C5.97932 10.6841 5.96313 10.6193 5.96057 10.5531C5.95802 10.487 5.96916 10.4211 5.99329 10.3595C6.01742 10.2979 6.05403 10.242 6.1008 10.1952C6.14758 10.1484 6.20352 10.1118 6.26512 10.0877C6.32672 10.0636 6.39264 10.0524 6.45874 10.055C6.52485 10.0575 6.58971 10.0737 6.64926 10.1025C6.70881 10.1313 6.76176 10.1722 6.8048 10.2224L8.7968 12.2144C8.81647 12.2346 8.83998 12.2506 8.86595 12.2616C8.89192 12.2725 8.91982 12.2781 8.948 12.2781C8.97618 12.2781 9.00407 12.2725 9.03004 12.2616C9.05601 12.2506 9.07952 12.2346 9.0992 12.2144C9.13847 12.1748 9.16052 12.1213 9.16052 12.0656C9.16052 12.0099 9.13847 11.9564 9.0992 11.9168L7.112 9.9248L6.5456 9.3584C6.45765 9.26867 6.40838 9.14804 6.40838 9.0224C6.40838 8.89676 6.45765 8.77613 6.5456 8.6864C6.63671 8.59926 6.75792 8.55063 6.884 8.55063C7.01007 8.55063 7.13128 8.59926 7.2224 8.6864L7.7888 9.2432L9.7808 11.24C9.82036 11.2793 9.87385 11.3013 9.9296 11.3013C9.98534 11.3013 10.0388 11.2793 10.0784 11.24C10.0986 11.2203 10.1146 11.1968 10.1256 11.1708C10.1365 11.1449 10.1421 11.117 10.1421 11.0888C10.1421 11.0606 10.1365 11.0327 10.1256 11.0068C10.1146 10.9808 10.0986 10.9573 10.0784 10.9376L8.0864 8.9456C8.0414 8.90187 8.00551 8.84967 7.98079 8.792C7.95608 8.73433 7.94303 8.67234 7.9424 8.6096C7.94303 8.54686 7.95608 8.48487 7.98079 8.4272C8.00551 8.36953 8.0414 8.31733 8.0864 8.2736C8.17633 8.1842 8.29799 8.13402 8.4248 8.13402C8.5516 8.13402 8.67326 8.1842 8.7632 8.2736L12.1232 11.624C12.1589 11.6565 12.2047 11.6758 12.2529 11.6786C12.3011 11.6815 12.3488 11.6677 12.3881 11.6396C12.4274 11.6116 12.4559 11.5709 12.4688 11.5244C12.4817 11.4779 12.4783 11.4283 12.4592 11.384L11.8112 10.016C11.6624 9.6896 11.7008 9.4448 11.9312 9.2672C11.9759 9.23331 12.0271 9.209 12.0816 9.19579C12.1361 9.18257 12.1927 9.18074 12.248 9.1904C12.4112 9.2192 12.5648 9.3248 12.6704 9.4784L13.9424 11.72C14.696 13.1024 14.456 14.3792 13.1984 15.6368C12.8905 15.9592 12.5075 16.2003 12.0837 16.3385C11.6598 16.4767 11.2084 16.5078 10.7696 16.4288C9.86538 16.2471 9.03911 15.7912 8.4032 15.1232L8.408 15.128ZM10.28 7.8704L11.5088 9.0992C11.2688 9.3872 11.24 9.776 11.4368 10.1936L11.5616 10.4624L9.5216 8.4224C9.48532 8.35607 9.46556 8.28198 9.464 8.2064C9.46453 8.08048 9.51452 7.95981 9.6032 7.8704C9.69431 7.78326 9.81552 7.73463 9.9416 7.73463C10.0677 7.73463 10.1889 7.78326 10.28 7.8704ZM14.5472 8.8592C14.3648 8.5904 14.1152 8.4176 13.832 8.3744C13.7196 8.35554 13.6046 8.35987 13.494 8.38711C13.3834 8.41435 13.2795 8.46393 13.1888 8.5328C13.0064 8.672 12.896 8.8448 12.848 9.0416C12.7029 8.90113 12.5189 8.80748 12.32 8.7728C12.1589 8.74784 11.994 8.76949 11.8448 8.8352L10.5776 7.568C10.4085 7.40004 10.1799 7.30578 9.9416 7.30578C9.70329 7.30578 9.47466 7.40004 9.3056 7.568C9.19384 7.68106 9.1143 7.82191 9.0752 7.976C8.90575 7.80565 8.67566 7.70947 8.43539 7.70857C8.19512 7.70767 7.96431 7.80212 7.7936 7.9712C7.67475 8.08991 7.5916 8.23958 7.5536 8.4032C7.1888 8.0432 6.5936 8.0432 6.2576 8.384C6.17371 8.46781 6.10716 8.56733 6.06176 8.67687C6.01635 8.78641 5.99298 8.90382 5.99298 9.0224C5.99298 9.14098 6.01635 9.25839 6.06176 9.36793C6.10716 9.47747 6.17371 9.57699 6.2576 9.6608C6.1136 9.7184 5.9648 9.8 5.84 9.9248C5.75611 10.0086 5.68956 10.1081 5.64416 10.2177C5.59875 10.3272 5.57538 10.4446 5.57538 10.5632C5.57538 10.6818 5.59875 10.7992 5.64416 10.9087C5.68956 11.0183 5.75611 11.1178 5.84 11.2016L6.1376 11.4992C5.98101 11.5359 5.83708 11.6138 5.7207 11.7248C5.60432 11.8358 5.51973 11.9759 5.47568 12.1306C5.43162 12.2853 5.42971 12.4489 5.47013 12.6046C5.51055 12.7603 5.59185 12.9023 5.7056 13.016L8.1104 15.4256C8.8784 16.1936 9.8 16.6928 10.7024 16.8464C10.8895 16.878 11.079 16.8941 11.2688 16.8944C11.7632 16.8944 12.2288 16.7744 12.6608 16.5584C13.1051 16.6129 13.5561 16.5612 13.9766 16.4077C14.3971 16.2542 14.7753 16.0031 15.08 15.6752C16.6832 14.072 16.5584 12.3488 15.9152 11.2736L14.5376 8.8544L14.5472 8.8592Z" fill="white"/>
</svg>
