<svg width="29" height="29" viewBox="0 0 29 29" fill="none" xmlns="http://www.w3.org/2000/svg">
<path d="M2.95256 0.115639C1.48155 0.409842 0.388793 1.54462 0.105097 3.06817C0.0315467 3.44644 2.49771e-05 7.52324 0.0210395 14.8783C0.0525612 27.2979 0.0105323 26.4153 0.725025 27.4555C1.07176 27.9598 1.93336 28.5903 2.5743 28.8109C3.20474 29.0211 25.8058 29.0106 26.4258 28.8004C27.466 28.4432 28.3486 27.6131 28.7689 26.5729C28.937 26.1421 28.9475 25.3015 28.9475 14.5526C28.9475 5.06455 28.9265 2.92107 28.8004 2.57434C28.4431 1.53412 27.6131 0.651508 26.5729 0.231218C26.1421 0.0631027 25.291 0.0525951 14.7627 0.03158C8.5214 0.03158 3.20474 0.0631027 2.95256 0.115639ZM26.6779 1.20839C26.9931 1.37651 27.3819 1.71274 27.55 1.93339C28.191 2.816 28.17 2.35368 28.1384 14.7732L28.1069 26.1106L27.7917 26.678C27.6236 26.9932 27.2873 27.3819 27.0667 27.5501C26.1841 28.191 26.6464 28.17 14.2268 28.1385L2.88952 28.1069L2.32213 27.7917C2.00691 27.6131 1.61814 27.2874 1.45003 27.0667C0.809083 26.1841 0.830098 26.6464 0.861619 14.2269L0.893141 2.88955L1.20836 2.32216C1.57611 1.6602 2.01742 1.29245 2.76343 1.02977C3.27829 0.851147 3.97176 0.851147 14.7102 0.87216L26.1105 0.893175L26.6779 1.20839Z" fill="black"/>
<path d="M13.8802 8.04858C13.67 8.31126 13.6595 8.45836 13.6595 10.9906V13.6594H11.1903H8.71059L8.45842 13.9221C8.11168 14.2584 8.11168 14.7417 8.45842 15.0779L8.71059 15.3406H11.1903H13.6595V18.062V20.7939L13.9327 21.004C14.332 21.3192 14.8468 21.2982 15.12 20.9515C15.3302 20.6888 15.3407 20.5417 15.3407 18.0094V15.3406H18.2617H21.1932L21.4349 15.0779C21.582 14.9203 21.6765 14.6892 21.6765 14.5C21.6765 14.3109 21.582 14.0797 21.4349 13.9221L21.1932 13.6594H18.2617H15.3407V10.9381V8.20619L15.0675 7.99604C14.6682 7.68083 14.1533 7.70184 13.8802 8.04858Z" fill="black"/>
</svg>
