<svg width="29" height="29" viewBox="0 0 29 29" fill="none" xmlns="http://www.w3.org/2000/svg">
<path fill-rule="evenodd" clip-rule="evenodd" d="M13.6184 0L14.5 3.4452L15.3816 0H13.6184ZM17.1796 4.3848L19.314 1.4152L17.6668 0.87L17.1796 4.3848ZM9.72081 1.4152L11.8552 4.3848L11.368 0.87L9.72081 1.4152ZM23.6408 25.0792C22.6811 26.1194 21.3808 26.7818 19.9752 26.9468L20.5436 26.4248C23.8844 23.0724 24.5456 19.488 22.504 15.7412L21.228 13.4908L20.1144 11.1476C19.7548 10.3704 19.8476 9.7788 20.4044 9.3496C20.5121 9.26708 20.6358 9.20794 20.7676 9.17598C20.8995 9.14402 21.0365 9.13994 21.17 9.164C21.5644 9.222 21.9356 9.4888 22.1908 9.86L25.4968 15.6832C26.8656 17.9684 27.0976 21.6224 23.6408 25.0792ZM8.23601 24.476L2.41281 18.6528C2.25384 18.4907 2.14595 18.2854 2.10252 18.0626C2.05909 17.8397 2.08202 17.609 2.16848 17.399C2.25493 17.1891 2.40111 17.0091 2.58888 16.8814C2.77665 16.7537 2.99777 16.684 3.22481 16.6808C3.38024 16.6799 3.53426 16.7102 3.67774 16.77C3.82121 16.8298 3.95121 16.9178 4.06001 17.0288L7.07601 20.0448C7.17138 20.1417 7.30134 20.1968 7.43731 20.1979C7.57327 20.1989 7.7041 20.146 7.80101 20.0506C7.89792 19.9552 7.95297 19.8253 7.95406 19.6893C7.95515 19.5533 7.90218 19.4225 7.80681 19.3256L4.75601 16.2864L2.72601 14.2564C2.60458 14.1524 2.50595 14.0244 2.43633 13.8805C2.3667 13.7366 2.32757 13.5799 2.3214 13.4201C2.31523 13.2603 2.34215 13.101 2.40047 12.9522C2.45879 12.8033 2.54725 12.6681 2.6603 12.5551C2.77334 12.442 2.90854 12.3536 3.05739 12.2953C3.20625 12.2369 3.36556 12.21 3.52531 12.2162C3.68507 12.2224 3.84182 12.2615 3.98573 12.3311C4.12965 12.4007 4.25762 12.4994 4.36161 12.6208L9.17561 17.4348C9.22316 17.4836 9.27998 17.5223 9.34274 17.5488C9.40549 17.5752 9.47291 17.5888 9.54101 17.5888C9.60911 17.5888 9.67653 17.5752 9.73928 17.5488C9.80203 17.5223 9.85886 17.4836 9.90641 17.4348C10.0013 17.3392 10.0546 17.2099 10.0546 17.0752C10.0546 16.9405 10.0013 16.8112 9.90641 16.7156L5.10401 11.9016L3.73521 10.5328C3.52267 10.316 3.40361 10.0244 3.40361 9.7208C3.40361 9.41717 3.52267 9.12564 3.73521 8.9088C3.9554 8.69821 4.24833 8.58068 4.55301 8.58068C4.85769 8.58068 5.15062 8.69821 5.37081 8.9088L6.73961 10.2544L11.5536 15.08C11.6492 15.1749 11.7785 15.2282 11.9132 15.2282C12.0479 15.2282 12.1772 15.1749 12.2728 15.08C12.3216 15.0325 12.3603 14.9756 12.3868 14.9129C12.4132 14.8501 12.4269 14.7827 12.4269 14.7146C12.4269 14.6465 12.4132 14.5791 12.3868 14.5163C12.3603 14.4536 12.3216 14.3967 12.2728 14.3492L7.45881 9.5352C7.35007 9.42953 7.26333 9.30337 7.2036 9.164C7.14388 9.02463 7.11234 8.87482 7.11081 8.7232C7.11234 8.57158 7.14388 8.42177 7.2036 8.2824C7.26333 8.14303 7.35007 8.01687 7.45881 7.9112C7.67615 7.69515 7.97015 7.57388 8.27661 7.57388C8.58306 7.57388 8.87707 7.69515 9.09441 7.9112L17.2144 16.008C17.3007 16.0865 17.4113 16.1331 17.5278 16.14C17.6443 16.1469 17.7596 16.1136 17.8545 16.0458C17.9495 15.978 18.0183 15.8797 18.0496 15.7673C18.0809 15.6548 18.0727 15.5351 18.0264 15.428L16.4604 12.122C16.1008 11.3332 16.1936 10.7416 16.7504 10.3124C16.8584 10.2305 16.9821 10.1718 17.1139 10.1398C17.2456 10.1079 17.3825 10.1035 17.516 10.1268C17.9104 10.1964 18.2816 10.4516 18.5368 10.8228L21.6108 16.24C23.432 19.5808 22.852 22.6664 19.8128 25.7056C19.0688 26.4848 18.1432 27.0675 17.1189 27.4015C16.0947 27.7355 15.0035 27.8104 13.9432 27.6196C11.758 27.1805 9.76119 26.0788 8.22441 24.4644L8.23601 24.476ZM12.76 6.9368L15.7296 9.9064C15.1496 10.6024 15.08 11.542 15.5556 12.5512L15.8572 13.2008L10.9272 8.2708C10.8395 8.11051 10.7918 7.93146 10.788 7.7488C10.7893 7.44449 10.9101 7.15286 11.1244 6.9368C11.3446 6.72621 11.6375 6.60868 11.9422 6.60868C12.2469 6.60868 12.5398 6.72621 12.76 6.9368ZM23.0724 9.3264C22.6316 8.6768 22.0284 8.2592 21.344 8.1548C21.0725 8.10923 20.7945 8.11968 20.5272 8.18551C20.2599 8.25134 20.0089 8.37116 19.7896 8.5376C19.3488 8.874 19.082 9.2916 18.966 9.7672C18.6154 9.42773 18.1708 9.20142 17.69 9.1176C17.3007 9.05727 16.9022 9.1096 16.5416 9.2684L13.4792 6.206C13.0706 5.80011 12.5181 5.5723 11.9422 5.5723C11.3663 5.5723 10.8138 5.80011 10.4052 6.206C10.1351 6.47923 9.94291 6.81962 9.84841 7.192C9.43893 6.78032 8.88286 6.54789 8.30221 6.54571C7.72156 6.54354 7.16376 6.7718 6.75121 7.1804C6.464 7.46727 6.26305 7.82899 6.17121 8.2244C5.28961 7.3544 3.85121 7.3544 3.03921 8.178C2.83648 8.38053 2.67566 8.62104 2.56593 8.88576C2.4562 9.15048 2.39973 9.43424 2.39973 9.7208C2.39973 10.0074 2.4562 10.2911 2.56593 10.5558C2.67566 10.8206 2.83648 11.0611 3.03921 11.2636C2.69121 11.4028 2.33161 11.6 2.03001 11.9016C1.82728 12.1041 1.66646 12.3446 1.55673 12.6094C1.447 12.8741 1.39053 13.1578 1.39053 13.4444C1.39053 13.731 1.447 14.0147 1.55673 14.2794C1.66646 14.5442 1.82728 14.7847 2.03001 14.9872L2.74921 15.7064C2.37079 15.7951 2.02296 15.9833 1.74171 16.2516C1.46047 16.5199 1.25604 16.8585 1.14957 17.2323C1.04311 17.6061 1.03848 18.0016 1.13617 18.3778C1.23386 18.754 1.43032 19.0972 1.70521 19.372L7.51681 25.1952C9.37281 27.0512 11.6 28.2576 13.7808 28.6288C14.2331 28.7052 14.6909 28.744 15.1496 28.7448C16.3444 28.7448 17.4696 28.4548 18.5136 27.9328C19.5874 28.0644 20.6772 27.9396 21.6935 27.5686C22.7097 27.1976 23.6236 26.5909 24.36 25.7984C28.2344 21.924 27.9328 17.7596 26.3784 15.1612L23.0492 9.3148L23.0724 9.3264Z" fill="black"/>
</svg>
