<svg width="29" height="29" viewBox="0 0 29 29" fill="none" xmlns="http://www.w3.org/2000/svg">
<path fill-rule="evenodd" clip-rule="evenodd" d="M5.18521 10.382H24.9052V6.902H5.18521V10.382ZM23.7452 11.542H24.9052C25.2129 11.542 25.5079 11.4198 25.7255 11.2022C25.943 10.9847 26.0652 10.6897 26.0652 10.382V6.902C26.0652 6.59435 25.943 6.2993 25.7255 6.08176C25.5079 5.86422 25.2129 5.742 24.9052 5.742H5.18521C4.87756 5.742 4.58251 5.86422 4.36496 6.08176C4.14742 6.2993 4.02521 6.59435 4.02521 6.902V10.382C4.02521 10.6897 4.14742 10.9847 4.36496 11.2022C4.58251 11.4198 4.87756 11.542 5.18521 11.542H6.34521V21.982C6.34521 22.2897 6.46742 22.5847 6.68496 22.8022C6.90251 23.0198 7.19756 23.142 7.50521 23.142H22.5852C22.8929 23.142 23.1879 23.0198 23.4055 22.8022C23.623 22.5847 23.7452 22.2897 23.7452 21.982V11.542ZM22.5852 11.542H7.50521V21.982H22.5852V11.542Z" fill="black"/>
<path fill-rule="evenodd" clip-rule="evenodd" d="M10.9852 13.282C10.9852 12.9572 11.2288 12.702 11.542 12.702H18.5484C18.8616 12.702 19.1052 12.9572 19.1052 13.282C19.1052 13.5952 18.8616 13.862 18.5484 13.862H11.542C11.4674 13.8605 11.3938 13.8443 11.3254 13.8144C11.257 13.7844 11.1952 13.7412 11.1435 13.6874C11.0918 13.6335 11.0512 13.57 11.024 13.5004C10.9969 13.4309 10.9837 13.3567 10.9852 13.282Z" fill="black"/>
</svg>
