<svg width="29" height="29" viewBox="0 0 29 29" fill="none" xmlns="http://www.w3.org/2000/svg">
<path d="M14.5 5.79999C9.69731 5.80512 5.80518 9.69725 5.80005 14.5V21.3357C5.80005 22.3653 6.63472 23.2 7.66433 23.2H10.1501C10.4933 23.2 10.7715 22.9217 10.7715 22.5785V16.3643C10.7715 16.021 10.4933 15.7428 10.1501 15.7428H7.66433C7.45216 15.7449 7.24192 15.7836 7.04289 15.8571V14.4999C7.04289 10.3815 10.3816 7.0428 14.5 7.0428C18.6185 7.0428 21.9572 10.3815 21.9572 14.4999V15.8571C21.7581 15.7836 21.5479 15.7449 21.3357 15.7428H18.85C18.5068 15.7428 18.2286 16.021 18.2286 16.3643V22.5785C18.2286 22.9218 18.5068 23.2 18.85 23.2H21.3358C22.3654 23.2 23.2001 22.3653 23.2001 21.3357V14.5C23.1949 9.69725 19.3028 5.80512 14.5 5.79999ZM7.66433 16.9857H9.52862V21.9571H7.66433C7.32112 21.9571 7.04289 21.6789 7.04289 21.3357V17.6071C7.04289 17.2639 7.32112 16.9857 7.66433 16.9857ZM21.9572 21.3357C21.9572 21.6789 21.6789 21.9571 21.3357 21.9571H19.4714V16.9857H21.3357C21.6789 16.9857 21.9572 17.2639 21.9572 17.6071V21.3357Z" fill="black"/>
</svg>
