<svg width="29" height="29" viewBox="0 0 29 29" fill="none" xmlns="http://www.w3.org/2000/svg">
<path d="M15 4C9.47715 4 5 8.47715 5 14C5 19.5228 9.47715 24 15 24C20.5228 24 25 19.5228 25 14C24.9941 8.47962 20.5204 4.0059 15 4ZM15 22.5714C10.2661 22.5714 6.42856 18.7339 6.42856 14C6.42856 9.26612 10.2661 5.42856 15 5.42856C19.7339 5.42856 23.5714 9.26612 23.5714 14C23.5663 18.7318 19.7318 22.5663 15 22.5714Z" fill="black"/>
<path d="M20.4874 9.9236C20.2106 9.65624 19.7717 9.65624 19.495 9.9236L12.8571 16.5615L10.5049 14.2093C10.2309 13.9255 9.77863 13.9177 9.49491 14.1917C9.21115 14.4658 9.20332 14.918 9.47738 15.2017C9.48311 15.2077 9.48897 15.2135 9.49491 15.2193L12.3521 18.0764C12.631 18.3553 13.0832 18.3553 13.3621 18.0764L20.5049 10.9335C20.779 10.6498 20.7711 10.1977 20.4874 9.9236Z" fill="black"/>
</svg>
