<svg width="29" height="29" viewBox="0 0 29 29" fill="none" xmlns="http://www.w3.org/2000/svg">
<path fill-rule="evenodd" clip-rule="evenodd" d="M22.1212 24.4992C20.6597 24.4909 19.2339 24.0466 18.0264 23.2232C17.7447 23.0374 17.4736 22.8361 17.2144 22.62C16.3212 22.8636 15.3932 22.9912 14.4536 22.9912C9.03641 22.9912 4.64001 18.9312 4.64001 13.9432C4.64001 8.93201 9.03641 4.87201 14.4536 4.87201C19.8592 4.87201 24.2672 8.93201 24.2672 13.92C24.2672 16.3096 23.2812 18.5484 21.4832 20.242C21.6897 21.331 22.142 22.3586 22.8056 23.2464C22.9796 23.49 23.0028 23.8032 22.8752 24.0584C22.8083 24.1916 22.7055 24.3034 22.5784 24.3812C22.4513 24.4591 22.305 24.5 22.156 24.4992H22.1212ZM22.1212 23.3392V23.9192L22.156 23.3392H22.1212ZM17.574 21.4368L17.8176 21.6688C18.8626 22.6281 20.1723 23.2506 21.576 23.4552C21.1556 22.7929 20.8315 22.0743 20.6132 21.3208C20.5298 21.0358 20.4678 20.745 20.4276 20.4508C20.4131 20.3392 20.4053 20.2269 20.4044 20.1144V19.8476L20.6132 19.6736C21.4432 18.9609 22.1108 18.0786 22.571 17.0861C23.0312 16.0936 23.2734 15.014 23.2812 13.92C23.2812 9.48881 19.3372 5.88121 14.4652 5.88121C9.60481 5.88121 5.64921 9.48881 5.64921 13.92C5.64921 18.3628 9.60481 21.9704 14.4652 21.9704C15.428 21.9704 16.3676 21.8312 17.2608 21.5644L17.5856 21.4716L17.574 21.4368Z" fill="black"/>
</svg>
