<svg width="29" height="29" viewBox="0 0 29 29" fill="none" xmlns="http://www.w3.org/2000/svg">
<path d="M21.5603 1.10487C21.3013 1.24865 21.1081 1.50747 21.0506 1.77451C21.0259 1.89365 21.0054 2.41539 21.0054 2.98643V3.99295H19.9078C18.8348 3.99295 18.802 3.99706 18.5964 4.09155C17.8236 4.45307 17.8359 5.53354 18.6211 5.89917C18.7937 5.97722 18.8883 5.98544 19.9037 5.99776L21.0012 6.01009L21.0136 7.10699C21.0259 8.12172 21.0341 8.21621 21.1122 8.38875C21.4205 9.04607 22.2386 9.19397 22.7319 8.68454C22.8388 8.57362 22.9415 8.42162 22.9703 8.32302C23.0032 8.20799 23.0197 7.80949 23.0197 7.07823V6.00598H24.0268C24.5859 6.00598 25.1203 5.98544 25.2354 5.96079C25.4861 5.90738 25.7369 5.73484 25.8849 5.50478C25.9877 5.35277 26 5.29526 26 4.99947C26 4.69956 25.9877 4.64205 25.8767 4.46129C25.7986 4.33804 25.6752 4.21479 25.5519 4.13674L25.3505 4.01349L24.1871 4.00117L23.0238 3.98884L23.0114 2.82621L22.9991 1.66359L22.8758 1.46228C22.6908 1.16649 22.4277 1.01859 22.0577 1.00216C21.8029 0.993944 21.7412 1.00627 21.5603 1.10487Z" fill="black"/>
<path d="M3.54263 4.09976C3.31242 4.21479 3.16443 4.37501 3.06166 4.6215C3.00822 4.75297 3 5.80878 3 14.017C3 21.7692 3.00822 23.2852 3.05755 23.4002C3.14388 23.6015 3.34942 23.8151 3.55496 23.9137L3.73995 24H12.9975H22.2593L22.4648 23.9014C22.7114 23.7864 22.8224 23.6713 22.9334 23.4248C23.0156 23.24 23.0198 23.1866 23.0198 17.5337C23.0198 13.3227 23.0074 11.7862 22.9704 11.6712C22.9458 11.5808 22.8635 11.437 22.7854 11.3508C22.3086 10.7921 21.4083 10.9317 21.1 11.6137C21.0301 11.7698 21.026 12.0697 21.0137 16.9051L21.0054 22.0281L12.9975 22.0198L4.99375 22.0075L4.98142 14.0088L4.9732 6.00597L10.0994 5.99776C15.2051 5.98543 15.2297 5.98543 15.4147 5.89916C15.5175 5.85397 15.6696 5.73894 15.7518 5.64445C16.1958 5.15557 16.0519 4.40788 15.4599 4.10387L15.2338 3.99294H9.49512H3.75639L3.54263 4.09976Z" fill="black"/>
<path d="M8.57014 9.1036C8.20428 9.27203 8.00696 9.58837 8.00696 9.99919C8.00696 10.3977 8.25361 10.7674 8.61536 10.9194C8.82912 11.0098 14.1896 11.0016 14.3993 10.9153C14.9543 10.6853 15.1721 9.98687 14.8556 9.47334C14.7816 9.35009 14.6583 9.22684 14.535 9.14879L14.3335 9.02554L11.5546 9.01322L8.77568 9.005L8.57014 9.1036Z" fill="black"/>
<path d="M8.75527 13.027C8.11809 13.2242 7.818 13.9102 8.1222 14.469C8.25375 14.7155 8.41407 14.851 8.66894 14.9414C8.93204 15.0318 17.0797 15.0359 17.3428 14.9414C17.7539 14.7976 18.0047 14.4402 18.0047 14.0088C18.0047 13.6062 17.8156 13.2981 17.4497 13.1009L17.2853 13.0105L13.0717 13.0023C10.7531 12.9982 8.81282 13.0105 8.75527 13.027Z" fill="black"/>
<path d="M8.57015 17.1146C8.34405 17.2173 8.15906 17.4063 8.06451 17.6322C7.99052 17.813 7.99052 18.191 8.06862 18.3758C8.15906 18.5936 8.38105 18.8277 8.5907 18.9222C8.76746 19.0044 8.84968 19.0085 10.864 19.0208C12.2781 19.029 13.0263 19.0167 13.1743 18.988C13.6758 18.8852 13.9964 18.4991 13.9923 18.002C13.9923 17.6856 13.8937 17.4679 13.6635 17.2625C13.3716 17.0078 13.4497 17.016 11.0079 17.016H8.77569L8.57015 17.1146Z" fill="black"/>
</svg>
