<svg width="29" height="29" viewBox="0 0 29 29" fill="none" xmlns="http://www.w3.org/2000/svg">
<path d="M24.3949 14.6304C24.3942 14.6299 24.3938 14.6293 24.3933 14.6289L16.1117 6.34753C15.7587 5.99438 15.2893 5.79999 14.7901 5.79999C14.2909 5.79999 13.8216 5.99438 13.4684 6.34753L5.19114 14.6247C5.18835 14.6275 5.18541 14.6304 5.18278 14.6332C4.45788 15.3623 4.45912 16.5452 5.18634 17.2724C5.51858 17.6048 5.95724 17.7972 6.42641 17.8175C6.44562 17.8193 6.46482 17.8203 6.48418 17.8203H6.8141V23.9146C6.8141 25.1208 7.7955 26.102 9.00165 26.102H12.2417C12.5702 26.102 12.8365 25.8356 12.8365 25.5073V20.7291C12.8365 20.1788 13.2843 19.7312 13.8346 19.7312H15.7457C16.296 19.7312 16.7436 20.1788 16.7436 20.7291V25.5073C16.7436 25.8356 17.0099 26.102 17.3384 26.102H20.5785C21.7848 26.102 22.766 25.1208 22.766 23.9146V17.8203H23.0721C23.5711 17.8203 24.0405 17.6259 24.3938 17.2726C25.1218 16.5443 25.1221 15.3592 24.3949 14.6304ZM23.5525 16.4315C23.4241 16.5599 23.2535 16.6307 23.0721 16.6307H22.1712C21.8427 16.6307 21.5764 16.8969 21.5764 17.2255V23.9146C21.5764 24.4648 21.1288 24.9125 20.5785 24.9125H17.9332V20.7291C17.9332 19.523 16.952 18.5416 15.7457 18.5416H13.8346C12.6283 18.5416 11.6469 19.523 11.6469 20.7291V24.9125H9.00165C8.45147 24.9125 8.00368 24.4648 8.00368 23.9146V17.2255C8.00368 16.8969 7.73742 16.6307 7.40889 16.6307H6.52353C6.51423 16.6301 6.50509 16.6296 6.49565 16.6294C6.31845 16.6263 6.15225 16.556 6.02772 16.4313C5.76285 16.1665 5.76285 15.7354 6.02772 15.4704C6.02787 15.4704 6.02787 15.4702 6.02803 15.4701L6.02849 15.4696L14.3098 7.1886C14.4381 7.06019 14.6086 6.98956 14.7901 6.98956C14.9715 6.98956 15.142 7.06019 15.2705 7.1886L23.5499 15.4679C23.5512 15.4691 23.5525 15.4704 23.5538 15.4716C23.8173 15.737 23.8168 16.1671 23.5525 16.4315Z" fill="black"/>
</svg>
