<svg width="112" height="22" viewBox="0 0 112 22" fill="none" xmlns="http://www.w3.org/2000/svg">
<path d="M56.55 19.5C56.55 19.9 56.55 20 56.85 20.2L58.35 21.6V21.7H51.85V19C51.15 20.8 49.45 22 47.55 22C44.25 22 41.75 19.4 41.75 14.5C41.75 10 44.35 6.9 48.05 6.9C49.65 6.8 51.15 7.7 51.85 9.3V3.2C51.85 2.9 51.75 2.6 51.55 2.5L50.15 1.1V1L56.65 0.2V19.5H56.55ZM51.75 18.7V9.5C51.25 8.9 50.55 8.6 49.85 8.6C48.25 8.6 46.75 10 46.75 14.3C46.75 18.3 48.05 19.7 49.75 19.7C50.55 19.8 51.35 19.4 51.75 18.7ZM60.85 21.8V9.4C60.85 9.1 60.75 8.8 60.55 8.7L59.15 7.2V7.1H65.65V19.6C65.65 20 65.65 20.1 65.95 20.3L67.35 21.7V21.8H60.85ZM60.65 2.6C60.65 1.2 61.75 0 63.25 0C64.65 0 65.85 1.2 65.85 2.6C65.85 4 64.65 5.3 63.25 5.3C61.75 5.3 60.65 4.1 60.65 2.6ZM83.15 19.5C83.15 19.9 83.15 20 83.45 20.2L84.95 21.6V21.7H78.45V18.5C77.85 20.5 76.05 21.9 73.95 21.9C71.05 21.9 69.55 19.8 69.55 15.7C69.55 13.8 69.55 11.6 69.65 9.2C69.65 8.9 69.55 8.7 69.35 8.5L67.95 7V7.1H74.25V15.1C74.25 17.7 74.65 19.5 76.25 19.5C77.15 19.4 77.95 18.9 78.35 18.2V9.5C78.35 9.2 78.25 8.9 78.05 8.8L76.65 7.3V7.1H83.15V19.5ZM105.15 21.8C105.15 21.3 105.25 15.3 105.25 13.9C105.25 11.3 104.85 9.4 103.05 9.4C102.15 9.4 101.25 9.9 100.75 10.7C100.95 11.5 101.05 12.4 101.05 13.2C101.05 15 100.95 17.4 100.95 19.7C100.95 20 101.05 20.2 101.25 20.4L102.75 21.8V21.9H96.25C96.25 21.5 96.35 15.4 96.35 14C96.35 11.3 95.95 9.5 94.15 9.5C93.25 9.5 92.45 10 91.95 10.8V19.8C91.95 20.2 91.95 20.3 92.25 20.5L93.65 21.9V22H87.15V9.5C87.15 9.2 87.05 8.9 86.85 8.8L85.45 7.3V7.1H91.95V10.2C92.55 8.1 94.45 6.7 96.55 6.8C98.75 6.8 100.15 8 100.75 10.3C101.45 8.2 103.45 6.7 105.65 6.8C108.55 6.8 110.15 9 110.15 13C110.15 14.9 110.05 17.2 110.05 19.5C109.95 19.8 110.15 20.1 110.35 20.2L111.75 21.6V21.7H105.15V21.8ZM23.75 19.8L25.65 21.7V21.8H15.85V21.7L17.85 19.8C18.05 19.6 18.15 19.4 18.15 19.1V7.3C18.15 6.8 18.15 6.1 18.25 5.5L11.65 22H11.55L4.75 6.8C4.65 6.4 4.55 6.4 4.45 6.2V16.2C4.35 16.9 4.45 17.5 4.75 18.1L7.45 21.7V21.8H0.25V21.7L2.95 18C3.25 17.4 3.35 16.7 3.25 16.1V5.1C3.25 4.6 3.15 4 2.75 3.6L0.95 1.1V1H7.95L13.75 13.9L18.85 1H25.65V1.1L23.75 3.3C23.55 3.5 23.45 3.8 23.45 4V19.2C23.45 19.4 23.55 19.7 23.75 19.8ZM31.35 13.9C31.35 17.7 33.25 19.2 35.55 19.2C37.45 19.3 39.15 18.2 39.95 16.5H40.05C39.25 20.2 36.95 22 33.55 22C29.85 22 26.35 19.8 26.35 14.6C26.35 9.1 29.85 7 33.65 7C36.75 7 40.05 8.5 40.05 13.2V14H31.35V13.9ZM31.35 13.1H35.65V12.3C35.65 8.4 34.85 7.4 33.65 7.4C32.25 7.5 31.35 9 31.35 13.1Z" fill="#080808"/>
</svg>
