<svg width="29" height="29" viewBox="0 0 29 29" fill="none" xmlns="http://www.w3.org/2000/svg">
<path fill-rule="evenodd" clip-rule="evenodd" d="M5.80005 14.5C5.80005 15.1403 6.02625 15.6867 6.47981 16.1403C6.93221 16.5927 7.47973 16.82 8.12005 16.82C8.76037 16.82 9.30673 16.5938 9.76029 16.1403C10.2127 15.6879 10.44 15.1403 10.44 14.5C10.44 13.8597 10.2138 13.3133 9.76029 12.8598C9.54782 12.6404 9.29266 12.467 9.01056 12.3501C8.72845 12.2331 8.42538 12.1753 8.12005 12.18C7.47973 12.18 6.93337 12.4062 6.47981 12.8598C6.02741 13.3122 5.80005 13.8597 5.80005 14.5ZM12.3158 14.5C12.3158 15.1403 12.5431 15.6867 12.9955 16.1403C13.4491 16.5927 13.9966 16.82 14.6358 16.82C15.2761 16.82 15.8224 16.5938 16.276 16.1403C16.7284 15.6879 16.9558 15.1403 16.9558 14.5C16.9558 13.8597 16.7296 13.3133 16.276 12.8598C16.0635 12.6404 15.8084 12.467 15.5263 12.3501C15.2442 12.2331 14.9411 12.1753 14.6358 12.18C13.9966 12.18 13.4491 12.4062 12.9955 12.8598C12.5431 13.3122 12.3158 13.8597 12.3158 14.5ZM18.8118 14.5C18.8118 15.1403 19.038 15.6867 19.4915 16.1403C19.9439 16.5927 20.4984 16.82 21.1526 16.82C21.7918 16.82 22.3393 16.5938 22.7917 16.1403C23.2453 15.6879 23.4726 15.1403 23.4726 14.5C23.4726 13.8597 23.2453 13.3133 22.7917 12.8598C22.5794 12.6406 22.3244 12.4672 22.0425 12.3503C21.7606 12.2334 21.4578 12.1754 21.1526 12.18C20.4972 12.18 19.9439 12.4062 19.4915 12.8598C19.0391 13.3122 18.8118 13.8597 18.8106 14.5H18.8118Z" fill="black"/>
</svg>
