<svg width="29" height="29" viewBox="0 0 29 29" fill="none" xmlns="http://www.w3.org/2000/svg">
<path d="M24.3556 4.04437C24.2964 4.06712 23.4408 4.79081 22.4531 5.6556C21.4699 6.52039 20.6461 7.22587 20.6279 7.22587C20.6052 7.22132 20.4777 7.05746 20.3412 6.8572C20.2046 6.65693 19.8769 6.28371 19.6129 6.02427C18.8801 5.31879 18.1565 4.87274 17.2325 4.56324C16.4496 4.3038 16.0855 4.24463 15.2207 4.24463C14.3742 4.24463 13.9873 4.3038 13.2772 4.54048C11.0242 5.29148 9.31743 7.41248 8.96241 9.8885C8.93965 10.066 8.91689 11.2175 8.91689 12.4647V14.7222L7.8746 15.6871C7.08719 16.4154 6.80499 16.7021 6.72307 16.866C6.62293 17.0708 6.61838 17.1391 6.59562 18.3179L6.57287 19.5514L5.36672 20.6028C4.7022 21.1808 4.12416 21.7133 4.08319 21.7816C3.92844 22.0228 3.99671 22.4143 4.22884 22.5963C4.36539 22.7101 4.62027 22.7511 4.79323 22.6919C4.88426 22.6555 5.30755 22.3232 5.78546 21.9045C6.94154 20.8895 6.79134 20.9805 6.99161 21.1535C7.33297 21.4539 7.2647 21.4493 9.62693 21.463L11.7661 21.4766L11.8253 21.6997C11.9619 22.2276 12.3988 22.9422 12.8221 23.3291C13.0406 23.5248 13.5321 23.8525 13.7642 23.9527C14.2148 24.1484 14.5016 24.2121 15.0432 24.2349C16.0309 24.2804 16.791 24.0255 17.5557 23.3883C17.9789 23.0378 18.4751 22.2458 18.6162 21.6997L18.6753 21.4766L20.8145 21.463C22.9492 21.4493 22.9583 21.4493 23.1722 21.3446C23.459 21.2035 23.6865 20.9396 23.773 20.6483C23.8777 20.3024 23.8777 17.3257 23.7776 16.9843C23.6956 16.7021 23.6137 16.6156 22.4485 15.5597L21.5246 14.7222V12.3509C21.5246 9.92947 21.5064 9.61996 21.338 8.9782C21.2833 8.77793 21.2287 8.56856 21.2196 8.51395C21.2014 8.43657 21.52 8.13617 23.1586 6.70245C25.2705 4.84998 25.2659 4.85909 25.1931 4.48586C25.1658 4.33111 25.0019 4.13995 24.8153 4.04437C24.697 3.9852 24.5013 3.9852 24.3556 4.04437ZM16.2221 5.65105C17.5192 5.92869 18.6799 6.7161 19.3763 7.78571L19.6084 8.14527L13.787 13.2384C10.5873 16.0376 7.95653 18.3315 7.94287 18.3315C7.92922 18.3315 7.91556 18.1313 7.91556 17.8855V17.444L8.94875 16.4882C9.81809 15.6826 9.9956 15.496 10.0957 15.282L10.2141 15.0317L10.2414 12.4829L10.2641 9.93402L10.3825 9.49707C10.956 7.38517 12.5262 5.90593 14.5426 5.58733C14.9021 5.53271 15.8306 5.56457 16.2221 5.65105ZM20.1364 9.55624C20.1546 9.63817 20.1819 10.9035 20.2001 12.3691L20.2274 15.0317L20.3548 15.2957C20.4641 15.5142 20.637 15.6962 21.4927 16.4791L22.5031 17.403L22.5168 18.7548L22.5259 20.1066H15.2162C10.4963 20.1066 7.91556 20.093 7.92466 20.0611C7.93832 20.0111 20.0317 9.41514 20.0726 9.41514C20.0908 9.41059 20.1182 9.47887 20.1364 9.55624ZM17.2917 21.4994C17.2917 21.5131 17.2279 21.6496 17.1506 21.7952C16.9913 22.0911 16.6044 22.4825 16.2903 22.6691C15.6804 23.0242 14.711 23.0105 14.1056 22.6418C13.746 22.4188 13.3637 21.991 13.2135 21.6314L13.1498 21.4721H15.2207C16.3586 21.4721 17.2917 21.4857 17.2917 21.4994Z" fill="black"/>
</svg>
