<svg width="29" height="29" viewBox="0 0 29 29" fill="none" xmlns="http://www.w3.org/2000/svg">
<path d="M22.8207 17.0172L20.88 15.254V11.0246C20.8801 10.1339 20.6937 9.25307 20.3327 8.43875C19.9718 7.62444 19.4444 6.89472 18.7844 6.29657C18.1244 5.69842 17.3465 5.24512 16.5007 4.9658C15.6549 4.68648 14.76 4.58736 13.8736 4.67481C10.556 4.99149 8.11999 7.96688 8.11999 11.2984V15.254L6.1712 17.0555C5.93456 17.2759 5.79999 17.5845 5.79999 17.9069V20.88C5.79999 21.1877 5.92222 21.4827 6.13976 21.7002C6.3573 21.9178 6.65234 22.04 6.95999 22.04H11.0084C11.1758 22.8425 11.6143 23.5629 12.25 24.0804C12.8858 24.5979 13.6802 24.8809 14.5 24.882C15.3197 24.8807 16.114 24.5976 16.7497 24.0801C17.3854 23.5627 17.8239 22.8424 17.9916 22.04H22.04C22.3476 22.04 22.6427 21.9178 22.8602 21.7002C23.0778 21.4827 23.2 21.1877 23.2 20.88V17.8756C23.2 17.5508 23.0608 17.2376 22.8207 17.0172ZM14.5 23.548C13.5233 23.548 12.702 22.9146 12.3981 22.04H16.6019C16.4522 22.4789 16.1691 22.8601 15.7923 23.1304C15.4155 23.4008 14.9637 23.5468 14.5 23.548ZM21.866 20.706H7.13398V17.9835L9.02479 16.2319C9.29855 15.9813 9.45398 15.6264 9.45398 15.254V11.2984C9.45398 8.5724 11.4492 6.24543 14.0012 6.00299C14.7025 5.93387 15.4105 6.01231 16.0796 6.23324C16.7488 6.45417 17.3643 6.8127 17.8865 7.2858C18.4088 7.75889 18.8263 8.33608 19.1121 8.9802C19.3979 9.62433 19.5457 10.3211 19.546 11.0258V15.254C19.546 15.6298 19.7049 15.9883 19.9822 16.24L21.866 17.9533V20.706Z" fill="black"/>
</svg>
