<svg width="29" height="29" viewBox="0 0 29 29" fill="none" xmlns="http://www.w3.org/2000/svg">
<path d="M13.1297 3.52244C11.4595 3.76057 10.242 4.61246 9.53098 6.03787C8.68244 7.74836 8.65561 10.3678 9.46055 13.4902C9.54775 13.8189 9.62489 14.1241 9.6316 14.1711C9.64502 14.2549 9.63495 14.2583 9.33981 14.3321C7.30064 14.8285 5.73101 16.3813 5.01998 18.6016C4.59403 19.9331 4.52025 21.5061 4.82881 22.6565C4.9965 23.2803 5.20444 23.5754 5.56667 23.7163C5.73101 23.78 5.9356 23.78 14.0856 23.78H22.4368L22.5911 23.7096C22.8091 23.609 23.007 23.4178 23.1042 23.2166C23.1579 23.1092 23.2183 22.8711 23.2652 22.6062C23.329 22.2238 23.339 22.0494 23.3424 21.1975C23.3424 20.4228 23.329 20.1477 23.282 19.8392C23.1311 18.8699 22.9131 18.1388 22.5576 17.4076C21.7828 15.8078 20.5184 14.7614 18.8481 14.3354C18.6838 14.2952 18.5429 14.2583 18.5362 14.2549C18.5295 14.2482 18.5798 14.0671 18.6435 13.8491C19.0494 12.4841 19.2607 11.1626 19.2909 9.82107C19.3277 8.20449 19.1332 7.13124 18.6134 6.07141C18.3585 5.55155 18.0801 5.17591 17.6541 4.76338C17.0102 4.13956 16.269 3.76727 15.2863 3.56939C14.8234 3.47548 13.6295 3.44865 13.1297 3.52244ZM14.5082 5.51801C15.8095 5.64211 16.5809 6.24246 16.9901 7.45657C17.4999 8.96918 17.312 11.4444 16.5004 13.886C16.4031 14.1812 16.2824 14.5132 16.2321 14.6239C16.165 14.7714 16.1348 14.8989 16.1214 15.0968C16.108 15.3382 16.1181 15.3919 16.1885 15.5495C16.3092 15.8078 16.4266 15.9319 16.6647 16.0493C16.8626 16.1465 16.9129 16.1566 17.3925 16.1834C17.6776 16.2002 18.0231 16.2371 18.1606 16.2673C19.6095 16.5691 20.572 17.5216 21.0449 19.1114C21.2462 19.7889 21.377 20.8521 21.33 21.4591L21.3065 21.7509H14.0185C7.10275 21.7509 6.72712 21.7476 6.71035 21.6905C6.6701 21.5396 6.65669 20.956 6.68687 20.6039C6.80761 19.2824 7.27045 18.1455 8.00831 17.3674C8.32358 17.0353 8.5986 16.8274 8.99771 16.6261C9.57123 16.3344 9.97034 16.2337 10.7451 16.1834C11.171 16.1566 11.2884 16.1365 11.4326 16.0728C11.7882 15.9084 11.9894 15.6166 12.0162 15.2242C12.0296 15.0129 12.0162 14.9425 11.8787 14.5199C11.4561 13.2253 11.1677 12.0112 11.0134 10.8742C10.9161 10.1363 10.8927 8.92223 10.9631 8.36883C11.1006 7.32912 11.3823 6.68182 11.9156 6.18209C12.4791 5.65552 13.4148 5.41404 14.5082 5.51801Z" fill="black"/>
</svg>
