<svg width="29" height="29" viewBox="0 0 29 29" fill="none" xmlns="http://www.w3.org/2000/svg">
<path d="M9.16425 3.53378C8.92864 3.61503 8.72147 3.80189 8.60772 4.02531C8.52242 4.20812 8.51429 4.27717 8.5021 5.04088C8.49398 5.5446 8.50617 5.9427 8.5346 6.08082C8.69303 6.85671 9.6761 7.12481 10.192 6.53173C10.387 6.31643 10.4439 6.1255 10.4439 5.7274V5.41867H15.2779H20.112V12.227C20.112 17.1383 20.1242 19.0841 20.1567 19.2141C20.1851 19.3278 20.2705 19.47 20.3801 19.5919C20.8392 20.1037 21.6232 19.994 21.9522 19.3766L22.0416 19.21V11.6949C22.0416 4.43966 22.0375 4.17562 21.9644 4.0375C21.8588 3.83845 21.7044 3.68002 21.5135 3.57847L21.351 3.4891L15.3389 3.48097C10.1961 3.47691 9.30237 3.48503 9.16425 3.53378Z" fill="black"/>
<path d="M5.3579 7.38477C5.1101 7.44977 4.90699 7.61226 4.76887 7.84787L4.65513 8.03879L4.64294 15.4321C4.63482 20.6805 4.64294 22.8863 4.67544 23.0326C4.76887 23.4632 5.15479 23.78 5.59351 23.78C5.71132 23.78 5.85756 23.7597 5.92256 23.7394C5.98349 23.715 7.24685 22.8904 8.72145 21.9073L11.4107 20.1159L14.043 21.8748C15.4892 22.8376 16.7485 23.6622 16.8419 23.7028C17.0531 23.8003 17.4025 23.8003 17.6137 23.7028C17.7031 23.6622 17.8453 23.5566 17.9265 23.4632C18.2231 23.1341 18.2028 23.6947 18.2028 15.5743C18.2028 9.70838 18.1906 8.24191 18.1499 8.07535C18.0809 7.80318 17.9265 7.61226 17.6665 7.46601L17.4512 7.34821L11.5 7.34009C6.8 7.33602 5.50821 7.34415 5.3579 7.38477ZM16.2529 15.1315C16.2529 20.1443 16.2447 20.9811 16.196 20.9649C16.1635 20.9527 15.1723 20.2987 13.9902 19.5106C11.6219 17.9263 11.5894 17.9101 11.2075 18.0157C11.0451 18.0604 10.4276 18.4544 8.79051 19.5472L6.5847 21.0177V15.1477V9.27778H11.4188H16.2529V15.1315Z" fill="black"/>
</svg>
