<svg width="29" height="29" viewBox="0 0 29 29" fill="none" xmlns="http://www.w3.org/2000/svg">
<path fill-rule="evenodd" clip-rule="evenodd" d="M23.7568 8.64203H4.01357V20.3928H18.56C18.7046 20.3928 18.8432 20.4503 18.9455 20.5525C19.0477 20.6548 19.1052 20.7934 19.1052 20.938C19.1052 21.0826 19.0477 21.2213 18.9455 21.3235C18.8432 21.4258 18.7046 21.4832 18.56 21.4832H4.01357C3.38717 21.4832 2.86517 20.996 2.86517 20.3928V8.64203C2.86517 8.03883 3.38717 7.56323 4.02517 7.56323H23.7452C24.3832 7.56323 24.9052 8.03883 24.9052 8.64203V15.1032C24.9052 15.2571 24.8441 15.4046 24.7353 15.5134C24.6265 15.6221 24.479 15.6832 24.3252 15.6832C24.1714 15.6832 24.0238 15.6221 23.9151 15.5134C23.8063 15.4046 23.7452 15.2571 23.7452 15.1032V8.64203H23.7568ZM6.34517 11.6232C6.34517 11.2984 6.60037 11.0432 6.92517 11.0432H17.4928C17.6466 11.0432 17.7941 11.1043 17.9029 11.2131C18.0117 11.3219 18.0728 11.4694 18.0728 11.6232C18.0728 11.7771 18.0117 11.9246 17.9029 12.0334C17.7941 12.1421 17.6466 12.2032 17.4928 12.2032H6.92517C6.77135 12.2032 6.62382 12.1421 6.51505 12.0334C6.40628 11.9246 6.34517 11.7771 6.34517 11.6232ZM6.93677 14.5232C6.85964 14.5217 6.78297 14.5356 6.71125 14.564C6.63954 14.5925 6.57422 14.6349 6.51913 14.689C6.46404 14.743 6.42028 14.8074 6.39041 14.8786C6.36054 14.9497 6.34516 15.0261 6.34517 15.1032C6.34517 15.4164 6.61197 15.6832 6.93677 15.6832H13.8736C13.9507 15.6848 14.0274 15.6709 14.0991 15.6425C14.1708 15.614 14.2361 15.5715 14.2912 15.5175C14.3463 15.4635 14.3901 15.399 14.4199 15.3279C14.4498 15.2568 14.4652 15.1804 14.4652 15.1032C14.4652 15.0261 14.4498 14.9497 14.4199 14.8786C14.3901 14.8074 14.3463 14.743 14.2912 14.689C14.2361 14.6349 14.1708 14.5925 14.0991 14.564C14.0274 14.5356 13.9507 14.5217 13.8736 14.5232H6.93677ZM21.46 18.0264C21.692 17.7944 22.04 17.7944 22.272 18.0264L24.3252 20.0796L26.3784 18.0264C26.4282 17.96 26.4918 17.905 26.5648 17.8652C26.6377 17.8254 26.7184 17.8018 26.8013 17.7959C26.8842 17.79 26.9673 17.802 27.0452 17.831C27.123 17.8601 27.1937 17.9056 27.2525 17.9643C27.3113 18.0231 27.3567 18.0938 27.3858 18.1716C27.4148 18.2495 27.4268 18.3327 27.4209 18.4155C27.415 18.4984 27.3914 18.5791 27.3516 18.6521C27.3118 18.725 27.2569 18.7886 27.1904 18.8384L25.1488 20.9032L27.1904 22.9448C27.2514 22.9964 27.3012 23.06 27.3365 23.1317C27.3718 23.2034 27.3919 23.2817 27.3955 23.3615C27.3991 23.4413 27.3862 23.5211 27.3576 23.5957C27.329 23.6703 27.2852 23.7382 27.2291 23.7951C27.173 23.852 27.1057 23.8967 27.0315 23.9264C26.9573 23.9561 26.8778 23.9701 26.7979 23.9676C26.718 23.9651 26.6395 23.9461 26.5673 23.9119C26.4951 23.8776 26.4308 23.8287 26.3784 23.7684L24.3252 21.7152L22.272 23.7684C22.1603 23.8522 22.0221 23.8929 21.8829 23.883C21.7436 23.8731 21.6126 23.8133 21.5139 23.7146C21.4151 23.6158 21.3553 23.4848 21.3454 23.3455C21.3355 23.2063 21.3762 23.0681 21.46 22.9564L23.5016 20.9032L21.46 18.85C21.3537 18.7416 21.2942 18.5958 21.2942 18.444C21.2942 18.2922 21.3537 18.1465 21.46 18.038V18.0264Z" fill="black"/>
</svg>
