<svg width="29" height="29" viewBox="0 0 29 29" fill="none" xmlns="http://www.w3.org/2000/svg">
<path d="M22.04 6.96001C22.04 6.34471 21.7955 5.75461 21.3604 5.31953C20.9254 4.88444 20.3353 4.64001 19.72 4.64001H9.27996C8.66466 4.64001 8.07456 4.88444 7.63947 5.31953C7.20439 5.75461 6.95996 6.34471 6.95996 6.96001V23.9656H6.97156C6.98316 24.0816 7.02956 24.1976 7.11076 24.2904C7.21455 24.4015 7.35779 24.4673 7.50965 24.4738C7.6615 24.4803 7.80985 24.427 7.92276 24.3252L14.5 19.546L21.0656 24.3368C21.2976 24.5456 21.6688 24.534 21.8892 24.302C21.9705 24.2077 22.0193 24.0898 22.0284 23.9656H22.04V6.96001Z" fill="black"/>
</svg>
