<svg width="29" height="29" viewBox="0 0 29 29" fill="none" xmlns="http://www.w3.org/2000/svg">
<path fill-rule="evenodd" clip-rule="evenodd" d="M22.04 6.96001C22.04 5.68401 20.996 4.64001 19.72 4.64001H9.28002C8.00402 4.64001 6.96002 5.68401 6.96002 6.96001V23.9656H6.97394C6.98554 24.0851 7.02614 24.2023 7.11314 24.2962C7.21718 24.4093 7.36187 24.4765 7.51542 24.4831C7.66897 24.4896 7.81884 24.4349 7.9321 24.331L14.5 19.546L21.0679 24.3322C21.1824 24.4345 21.3323 24.4881 21.4857 24.4816C21.639 24.4751 21.7838 24.409 21.8892 24.2974C21.9686 24.2044 22.0165 24.0886 22.0261 23.9668H22.04V6.96001ZM14.1079 18.5252L8.12002 22.7778V6.96001C8.12002 6.32201 8.64202 5.80001 9.28002 5.80001H19.72C20.358 5.80001 20.88 6.32201 20.88 6.96001V22.7789L14.8921 18.5241C14.7864 18.4234 14.646 18.3672 14.5 18.3672C14.354 18.3672 14.2136 18.4234 14.1079 18.5241V18.5252Z" fill="black"/>
</svg>
