<svg width="29" height="29" viewBox="0 0 29 29" fill="none" xmlns="http://www.w3.org/2000/svg">
<path d="M23.2778 21.9623L18.4557 17.1402C19.5783 15.7549 20.1264 13.9916 19.9869 12.214C19.8475 10.4364 19.0312 8.78008 17.7063 7.58675C16.3815 6.39342 14.6491 5.75407 12.8667 5.80059C11.0842 5.84711 9.38761 6.57594 8.1268 7.83676C6.86598 9.09757 6.13715 10.7942 6.09063 12.5766C6.04411 14.3591 6.68346 16.0914 7.87679 17.4163C9.07012 18.7411 10.7264 19.5575 12.504 19.6969C14.2816 19.8363 16.0449 19.2882 17.4302 18.1656L22.2523 22.9877C22.3197 23.0551 22.3996 23.1085 22.4876 23.1449C22.5756 23.1814 22.6698 23.2001 22.7651 23.2001C22.8603 23.2001 22.9546 23.1814 23.0425 23.1449C23.1305 23.1085 23.2104 23.0551 23.2778 22.9877C23.3451 22.9204 23.3985 22.8405 23.435 22.7525C23.4714 22.6645 23.4902 22.5702 23.4902 22.475C23.4902 22.3798 23.4714 22.2855 23.435 22.1975C23.3985 22.1096 23.3451 22.0296 23.2778 21.9623ZM7.54006 12.76C7.54006 9.72082 10.0109 7.25002 13.0501 7.25002C16.0893 7.25002 18.5601 9.72082 18.5601 12.76C18.5601 15.7992 16.0893 18.27 13.0501 18.27C10.0109 18.27 7.54006 15.7992 7.54006 12.76Z" fill="black"/>
</svg>
