<svg width="29" height="29" viewBox="0 0 29 29" fill="none" xmlns="http://www.w3.org/2000/svg">
<path d="M13.501 2.03872C13.3777 2.08646 12.9083 2.53199 11.4961 3.94017C10.4817 4.95454 9.6225 5.83366 9.59068 5.90128C9.55487 5.96493 9.52305 6.10813 9.52305 6.21951C9.51509 6.72471 9.97653 7.08272 10.4658 6.95145C10.609 6.91565 10.8 6.74062 11.8183 5.73023L12.9997 4.55277V8.66593C12.9997 11.534 13.0117 12.8308 13.0435 12.9422C13.1072 13.1809 13.3816 13.4275 13.6163 13.4633C13.9903 13.519 14.3721 13.2803 14.4676 12.9422C14.4994 12.8308 14.5114 11.5459 14.5114 8.66593V4.54879L15.6968 5.73023C16.7469 6.77642 16.8981 6.91565 17.0572 6.95543C17.6102 7.10659 18.1193 6.58946 17.9721 6.03255C17.9324 5.88139 17.7096 5.64272 16.0707 3.99984C15.0484 2.97353 14.1653 2.11033 14.1056 2.0785C13.9385 1.99099 13.676 1.97508 13.501 2.03872Z" fill="black"/>
<path d="M5.46162 9.05973C5.26273 9.14725 5.09963 9.33421 5.04394 9.53311C4.9803 9.76382 4.98825 24.7367 5.0519 24.9515C5.12748 25.1942 5.35024 25.397 5.60881 25.4488C5.75997 25.4806 8.11092 25.4925 13.8749 25.4846L21.9302 25.4726L22.0973 25.3811C22.1927 25.3334 22.3161 25.218 22.3757 25.1265L22.4871 24.9595L22.499 17.3258C22.503 12.1506 22.4951 9.64051 22.4672 9.53708C22.4115 9.33819 22.2484 9.14725 22.0495 9.05973C21.9024 8.99211 21.7472 8.98415 20.0009 8.98415C18.2546 8.98415 18.0995 8.99211 17.9523 9.05973C17.3954 9.31034 17.3596 10.0582 17.8847 10.3844C18.0318 10.4759 18.0438 10.4759 19.5156 10.4878L20.9954 10.4997V17.2423V23.9809H13.7556H6.51577V17.2383V10.4997L7.97965 10.4878C9.62252 10.4759 9.63844 10.4719 9.85722 10.1735C10.1357 9.78769 9.99247 9.25465 9.55888 9.05973C9.4117 8.99211 9.25656 8.98415 7.51025 8.98415C5.76395 8.98415 5.60881 8.99211 5.46162 9.05973Z" fill="black"/>
</svg>
