<svg width="29" height="29" viewBox="0 0 29 29" fill="none" xmlns="http://www.w3.org/2000/svg">
<path d="M14.3488 7.76577L11.7967 5.21368C11.5123 4.92894 11.05 4.92894 10.7657 5.21368L8.21356 7.76577C7.92881 8.05052 7.92881 8.51208 8.21356 8.79682C8.49793 9.08156 8.96023 9.08156 9.2446 8.79682L10.552 7.48942V21.771C10.552 22.1735 10.8787 22.5001 11.2812 22.5001C11.6837 22.5001 12.0103 22.1735 12.0103 21.771V7.48942L13.3177 8.79682C13.4599 8.93937 13.6466 9.01047 13.8333 9.01047C14.0199 9.01047 14.2066 8.93937 14.3488 8.79682C14.6335 8.51208 14.6335 8.05052 14.3488 7.76577Z" fill="black"/>
<path d="M22.505 18.7032C22.2203 18.4185 21.7587 18.4185 21.474 18.7032L20.1666 20.0106V5.72917C20.1666 5.32667 19.8399 5 19.4374 5C19.0349 5 18.7082 5.32667 18.7082 5.72917V20.0106L17.4008 18.7032C17.1161 18.4185 16.6542 18.4185 16.3698 18.7032C16.0851 18.988 16.0851 19.4495 16.3698 19.7343L18.9219 22.2864C19.0644 22.4289 19.2507 22.5 19.4374 22.5C19.6241 22.5 19.8104 22.4289 19.9529 22.2864L22.505 19.7343C22.7897 19.4495 22.7897 18.988 22.505 18.7032Z" fill="black"/>
</svg>
