<svg width="29" height="29" viewBox="0 0 29 29" fill="none" xmlns="http://www.w3.org/2000/svg">
<path d="M14.3802 4.49304C14.4459 4.30164 14.5542 4.30164 14.618 4.49304L16.938 11.3177C16.9761 11.4218 17.0442 11.5122 17.1337 11.5776C17.2231 11.6429 17.33 11.6803 17.4407 11.685H24.9497C25.1624 11.685 25.1953 11.7798 25.0232 11.8996L18.9467 16.0988C18.8616 16.1622 18.7977 16.2499 18.7636 16.3504C18.7294 16.4508 18.7265 16.5593 18.7553 16.6614L21.0753 23.4861C21.1411 23.6794 21.0541 23.7394 20.8859 23.6195L14.8113 19.4048C14.7185 19.3471 14.6113 19.3165 14.502 19.3165C14.3927 19.3165 14.2855 19.3471 14.1927 19.4048L8.11233 23.6234C7.94413 23.7394 7.85713 23.6814 7.92093 23.4919L10.2409 16.6672C10.2704 16.565 10.268 16.4563 10.2342 16.3554C10.2004 16.2546 10.1366 16.1664 10.0515 16.1027L3.975 11.8822C3.8068 11.7662 3.83773 11.6657 4.04847 11.6657H11.5575C11.6682 11.661 11.7751 11.6236 11.8645 11.5582C11.954 11.4928 12.0221 11.4024 12.0602 11.2984L14.3802 4.49304Z" fill="black"/>
</svg>
