<svg width="29" height="29" viewBox="0 0 29 29" fill="none" xmlns="http://www.w3.org/2000/svg">
<path d="M16.6537 12.883C14.9663 17.2211 13.5307 20.8919 13.4678 21.0367L13.3544 21.3074H12.4667H11.5852V21.5719C11.5852 21.83 11.5852 21.8363 11.4844 21.6978C11.4026 21.5781 11.3333 21.5593 10.9241 21.5593H10.4644L8.29222 16.1256L6.12 10.6981L5.78 10.6793L5.44 10.6604L3.7463 14.9922C2.82074 17.3722 1.8637 19.8278 1.62444 20.4448L1.1837 21.5593H0.591852H0V21.7796V22H1.66852C3.27407 22 3.33704 21.9937 3.33704 21.8804C3.33704 21.6222 3.17333 21.5593 2.5437 21.5593C2.2163 21.5593 1.95185 21.5404 1.95185 21.5152C1.95185 21.49 2.26667 20.6526 2.65704 19.6578L3.35593 17.8444L5.34555 17.857L7.32889 17.8759L8.00889 19.6074C8.38037 20.5581 8.68259 21.3893 8.68259 21.4459C8.68889 21.5467 8.61963 21.5593 8.09074 21.5593H7.49259V21.7796V22H12.0637H16.6411L16.597 21.7985C16.5781 21.6852 16.4963 21.5341 16.4207 21.4522C16.2948 21.3137 16.2444 21.3074 15.4133 21.3074C14.727 21.3074 14.5444 21.2885 14.5444 21.2256C14.5444 21.1752 15.0104 19.9348 15.577 18.4678L16.6096 15.7981L19.5878 15.7856L22.5722 15.7667L23.5922 18.43C24.1526 19.8907 24.6311 21.1374 24.6563 21.2004C24.6941 21.3011 24.6248 21.3074 23.7748 21.3074H22.8556V21.6537V22H25.9156H28.9818L28.9378 21.7985C28.8622 21.4081 28.7237 21.3452 27.9493 21.3074L27.2567 21.2759L25.053 15.7667C23.8441 12.7381 22.3833 9.0737 21.8104 7.62556L20.7652 5H20.2489H19.7326L16.6537 12.883ZM20.9226 11.523C21.6467 13.3804 22.2196 14.9104 22.207 14.923C22.1944 14.9356 21.0044 14.9419 19.5626 14.9356L16.9433 14.9167L18.2467 11.5293C18.9581 9.67185 19.5563 8.14815 19.5752 8.14815C19.6004 8.14815 20.2048 9.66556 20.9226 11.523ZM6.23333 15.0237C6.70555 16.2452 7.08333 17.2652 7.07074 17.2904C7.03926 17.3533 3.58889 17.3533 3.58889 17.2904C3.58889 17.1959 5.30778 12.7444 5.33926 12.7696C5.35185 12.7885 5.75481 13.8022 6.23333 15.0237Z" fill="black"/>
</svg>
